<svg version="1.1" id="Layer_1" xmlns="http://www.w3.org/2000/svg" xmlns:xlink="http://www.w3.org/1999/xlink" x="0px" y="0px"
	 width="100%" viewBox="0 0 1024 1024" enable-background="new 0 0 1024 1024" xml:space="preserve">
<path fill="#000000" opacity="1.000000" stroke="none" 
	d="
M478.836426,134.765671 
	C490.645935,130.068390 502.128052,125.582458 513.523071,120.885185 
	C516.507019,119.655136 519.081238,119.600624 522.108276,120.833069 
	C569.622009,140.177719 617.173950,159.428391 664.722595,178.687119 
	C716.903198,199.821960 769.070190,220.990570 821.309143,241.980286 
	C825.533264,243.677536 827.173340,245.871857 827.110291,250.443924 
	C825.796082,345.754059 826.929138,441.076111 825.976135,536.383728 
	C825.519104,582.091248 813.766968,625.561218 794.735291,667.082153 
	C763.358215,735.536926 714.852600,789.369568 653.658997,832.324402 
	C621.627563,854.808777 587.317993,873.191772 551.178772,888.175110 
	C549.532104,888.857849 547.932190,889.858459 545.695435,889.509216 
	C545.377747,887.006653 547.365234,885.651611 548.554077,884.080261 
	C580.244507,842.194824 613.630066,801.734253 649.666443,763.483398 
	C674.492310,737.131958 698.137329,709.840576 716.839172,678.599670 
	C737.935669,643.358704 752.900269,605.842590 759.182007,565.147949 
	C761.032166,553.162109 761.782776,541.002869 761.787048,528.816711 
	C761.812439,456.654633 761.919861,384.492554 762.039917,312.330536 
	C762.049866,306.338104 762.217224,300.337891 762.570984,294.356628 
	C762.859863,289.472412 761.390747,286.440460 756.416626,284.446777 
	C717.610596,268.893005 678.922546,253.044922 640.176941,237.339981 
	C600.970154,221.448105 561.733154,205.630844 522.531067,189.727402 
	C519.649231,188.558319 517.055237,187.960297 513.925781,189.226166 
	C468.378693,207.650101 422.774933,225.933990 377.214386,244.324829 
	C345.399261,257.167236 313.621796,270.103088 281.844269,283.038361 
	C273.228821,286.545288 273.261414,286.613953 273.258545,296.084869 
	C273.234589,375.079865 273.312408,454.075104 273.139008,533.069763 
	C273.054901,571.404846 282.986877,607.104248 300.485199,640.901428 
	C328.270599,694.567688 368.490417,737.246948 417.165649,772.385315 
	C421.517242,775.526611 423.830170,780.223267 426.934448,784.290894 
	C454.949615,820.999939 485.570496,855.574097 514.558105,891.484131 
	C515.775330,892.992065 517.435730,894.282349 517.625366,896.455444 
	C515.774353,897.627747 514.245789,896.485229 512.799561,895.941956 
	C434.292816,866.451965 364.286377,823.938049 307.186676,761.656738 
	C268.945465,719.945312 239.610001,672.973877 222.942429,618.591980 
	C216.541031,597.705933 211.940659,576.441833 210.623428,554.529114 
	C208.671265,522.054382 210.050003,489.563812 209.932846,457.083466 
	C209.684036,388.088715 209.872070,319.092438 209.747910,250.097015 
	C209.740250,245.843231 211.020889,243.483551 215.012543,241.727539 
	C252.069153,225.425568 289.892700,211.002457 327.371979,195.741226 
	C377.660370,175.264221 428.101166,155.161484 478.836426,134.765671 
z"/>
<path fill="#000000" opacity="1.000000" stroke="none" 
	d="
M408.400269,390.017578 
	C408.400635,401.679382 408.403015,412.844238 408.400879,424.009094 
	C408.399597,430.813141 409.266388,431.686768 416.255768,431.688538 
	C443.251556,431.695374 470.247314,431.685272 497.243103,431.684357 
	C504.212036,431.684143 504.265991,431.712677 504.275665,438.601593 
	C504.299072,455.265594 504.169739,471.931152 504.376373,488.592682 
	C504.433502,493.200897 502.936218,494.555664 498.291565,494.516144 
	C470.464508,494.279419 442.634003,494.458801 414.806671,494.239502 
	C410.083771,494.202271 408.498047,496.230072 408.441254,500.388275 
	C408.391144,504.053497 408.400116,507.719727 408.399200,511.385498 
	C408.385345,566.876770 408.377472,622.368103 408.347565,677.859375 
	C408.346588,679.656006 408.733765,681.528687 407.697632,683.250488 
	C405.593903,683.983032 404.699860,682.230408 403.614258,681.135681 
	C383.786804,661.140259 364.026917,641.077637 344.146698,621.134949 
	C341.696075,618.676575 341.641510,615.924377 341.641510,612.895386 
	C341.641541,525.908997 341.623138,438.922668 341.597382,351.936310 
	C341.594025,340.626495 341.852570,329.303101 341.369232,318.012512 
	C341.119965,312.189606 343.729767,311.592621 348.498230,311.600311 
	C416.154144,311.709747 483.810333,311.677734 551.466431,311.670715 
	C567.630493,311.669037 583.794556,311.617340 599.958618,311.635620 
	C601.897888,311.637817 603.962158,311.135406 605.684875,312.440277 
	C606.575989,314.144531 605.549744,315.440277 604.827637,316.678925 
	C594.341125,334.667084 583.764282,352.602844 573.341125,370.627533 
	C571.648804,373.554077 569.231995,373.456177 566.509949,373.454346 
	C517.517700,373.421021 468.525421,373.422974 419.533142,373.418396 
	C418.200043,373.418243 416.865479,373.391479 415.534088,373.442596 
	C409.609344,373.670074 408.509949,374.737640 408.389740,380.523529 
	C408.327484,383.521210 408.392761,386.521515 408.400269,390.017578 
z"/>
<path fill="#000000" opacity="1.000000" stroke="none" 
	d="
M705.722290,595.554260 
	C692.147400,635.643982 664.605164,659.634277 623.944641,668.698181 
	C616.347717,670.391663 608.501160,671.181396 600.658508,671.191711 
	C575.667725,671.224609 550.676880,671.213562 525.686096,671.188171 
	C519.328613,671.181763 518.842773,670.676086 518.840149,664.351807 
	C518.819580,614.036987 518.807495,563.722168 518.807861,513.407349 
	C518.807922,506.957581 519.083618,506.714935 525.642700,506.711151 
	C539.637573,506.703064 553.632385,506.701050 567.627258,506.712891 
	C574.103394,506.718353 574.239258,506.852051 574.240479,513.535767 
	C574.246277,544.690918 574.237061,575.846130 574.236023,607.001282 
	C574.235779,613.933105 574.241150,613.954102 581.149902,613.945557 
	C588.146973,613.936951 595.148804,614.035522 602.140198,613.817932 
	C626.236816,613.067932 644.742188,598.391174 650.480347,574.915283 
	C654.253296,559.479553 654.038025,543.764221 650.130371,528.412354 
	C644.020081,504.407227 624.356079,489.736145 598.434814,489.426239 
	C579.278748,489.197174 560.116516,489.360016 540.958557,489.521606 
	C537.327881,489.552216 535.378113,488.950592 535.437134,484.675262 
	C535.650940,469.184357 535.702271,453.687897 535.517090,438.197083 
	C535.467285,434.033325 536.800537,432.614075 540.932922,432.644928 
	C561.590942,432.799103 582.269897,432.176727 602.905762,432.877686 
	C659.324585,434.794189 701.631165,471.960114 709.717712,525.887451 
	C713.190125,549.044373 712.676636,572.391235 705.722290,595.554260 
z"/>
<path fill="#000000" opacity="1.000000" stroke="none" 
	d="
M648.890991,692.851746 
	C659.662903,686.422607 669.940247,679.846680 681.107605,674.316956 
	C682.006042,677.572754 679.965576,678.721252 678.791870,680.126953 
	C662.030945,700.200928 645.419556,720.405334 628.354614,740.218750 
	C596.059448,777.715576 564.644592,815.933472 533.804321,854.626770 
	C531.054199,858.077087 529.275940,858.631531 526.163208,855.077332 
	C503.330841,829.007019 479.977753,803.391907 457.855377,776.701111 
	C456.001038,774.463806 455.415161,772.687317 457.681854,770.247681 
	C464.377991,763.040771 471.331635,756.106506 478.466675,749.337036 
	C480.917694,747.011597 482.786682,747.051392 485.275818,749.250610 
	C498.135986,760.612488 511.093292,771.864502 524.021667,783.149109 
	C525.762939,784.669128 527.275757,786.503601 530.615784,787.680969 
	C563.589722,748.713684 605.022156,719.534119 648.890991,692.851746 
z"/>
</svg>